<?xml version="1.0" encoding="UTF-8" standalone="no"?>
<!DOCTYPE svg PUBLIC "-//W3C//DTD SVG 20010904//EN"
              "http://www.w3.org/TR/2001/REC-SVG-20010904/DTD/svg10.dtd">

<svg xmlns="http://www.w3.org/2000/svg"
     width="11.4444in" height="11.4444in"
     viewBox="0 0 824 824">
  <path id="chess-vs-computer"
        fill="#212121" stroke="none" stroke-width="none"
        d="M 368.50,0.53
           C 368.50,0.53 372.42,0.53 372.42,0.53
             374.29,0.38 373.48,0.02 377.00,0.00
             377.00,0.00 388.00,0.00 388.00,0.00
             388.00,0.00 401.50,1.00 401.50,1.00
             401.50,1.00 420.00,1.00 420.00,1.00
             420.00,1.00 433.50,0.00 433.50,0.00
             433.50,0.00 446.50,0.00 446.50,0.00
             450.21,0.01 449.28,0.33 451.58,0.56
             451.58,0.56 454.00,0.56 454.00,0.56
             456.23,0.73 457.15,1.68 459.00,1.76
             459.00,1.76 463.00,1.76 463.00,1.76
             464.68,1.74 465.66,2.49 467.00,2.66
             467.00,2.66 470.50,2.66 470.50,2.66
             470.50,2.66 474.00,3.68 474.00,3.68
             474.00,3.68 477.00,3.68 477.00,3.68
             477.00,3.68 480.00,4.67 480.00,4.67
             480.00,4.67 483.00,4.67 483.00,4.67
             484.65,4.93 484.82,5.63 486.99,5.73
             490.42,5.87 488.80,6.16 491.04,6.68
             491.04,6.68 493.46,6.68 493.46,6.68
             495.54,7.02 494.36,7.53 498.00,7.70
             500.16,7.80 503.51,8.91 505.64,9.47
             505.64,9.47 518.00,12.37 518.00,12.37
             520.20,12.96 523.12,13.02 524.50,15.00
             526.82,14.51 530.07,14.93 531.50,17.00
             534.42,16.45 536.74,17.59 539.50,18.50
             539.50,18.50 554.00,23.56 554.00,23.56
             567.45,28.44 580.63,33.86 593.50,40.13
             593.50,40.13 607.50,47.27 607.50,47.27
             607.50,47.27 614.04,51.05 614.04,51.05
             614.04,51.05 632.71,62.29 632.71,62.29
             634.97,63.77 637.56,64.24 638.50,67.00
             638.50,67.00 641.00,67.00 641.00,67.00
             641.94,68.67 642.12,68.69 644.00,69.00
             644.00,69.00 644.00,70.50 644.00,70.50
             644.00,70.50 645.96,70.92 645.96,70.92
             645.96,70.92 653.29,76.06 653.29,76.06
             653.29,76.06 654.00,77.50 654.00,77.50
             657.15,78.01 656.68,78.88 659.04,80.47
             659.04,80.47 666.14,85.76 666.14,85.76
             666.14,85.76 668.94,87.56 668.94,87.56
             668.94,87.56 671.23,89.77 671.23,89.77
             673.45,91.61 674.98,91.30 676.00,94.50
             679.30,95.03 680.32,96.95 682.71,99.05
             682.71,99.05 686.50,102.09 686.50,102.09
             686.50,102.09 694.01,109.00 694.01,109.00
             702.10,115.68 711.93,126.58 719.08,134.50
             727.92,144.28 736.41,154.30 744.15,165.00
             744.15,165.00 764.01,194.14 764.01,194.14
             787.12,231.05 804.35,273.69 814.37,316.00
             814.37,316.00 820.84,348.00 820.84,348.00
             820.84,348.00 822.14,359.00 822.14,359.00
             822.14,359.00 824.00,375.50 824.00,375.50
             824.00,375.50 824.00,448.50 824.00,448.50
             824.00,448.50 822.14,465.00 822.14,465.00
             822.14,465.00 821.85,469.00 821.85,469.00
             821.85,469.00 817.25,495.00 817.25,495.00
             817.25,495.00 812.71,515.50 812.71,515.50
             804.91,544.57 795.61,570.03 782.12,597.00
             765.14,630.97 744.56,661.29 719.08,689.50
             719.08,689.50 711.98,697.50 711.98,697.50
             654.36,757.74 579.47,799.42 498.00,816.75
             498.00,816.75 469.00,821.85 469.00,821.85
             469.00,821.85 465.00,822.14 465.00,822.14
             465.00,822.14 448.50,824.00 448.50,824.00
             448.50,824.00 375.50,824.00 375.50,824.00
             375.50,824.00 359.00,822.03 359.00,822.03
             359.00,822.03 355.50,822.03 355.50,822.03
             355.50,822.03 351.50,821.15 351.50,821.15
             351.50,821.15 342.00,819.84 342.00,819.84
             342.00,819.84 315.50,814.25 315.50,814.25
             315.50,814.25 292.00,807.94 292.00,807.94
             247.99,794.62 206.26,774.13 169.00,747.13
             169.00,747.13 146.00,729.35 146.00,729.35
             146.00,729.35 128.00,713.36 128.00,713.36
             119.75,706.09 112.27,697.65 104.92,689.50
             79.93,661.84 59.05,631.34 42.38,598.00
             28.68,570.62 19.21,545.03 11.29,515.50
             11.29,515.50 6.75,495.00 6.75,495.00
             6.75,495.00 2.15,469.00 2.15,469.00
             2.15,469.00 1.86,465.00 1.86,465.00
             1.86,465.00 0.00,449.50 0.00,449.50
             0.00,449.50 0.00,375.50 0.00,375.50
             0.00,375.50 1.86,359.00 1.86,359.00
             1.86,359.00 3.16,348.00 3.16,348.00
             3.16,348.00 9.63,316.00 9.63,316.00
             21.10,267.58 41.31,220.61 69.51,179.50
             79.55,164.87 90.35,150.80 102.09,137.50
             102.09,137.50 108.20,131.37 108.20,131.37
             108.20,131.37 114.09,124.50 114.09,124.50
             114.09,124.50 122.04,116.65 122.04,116.65
             122.04,116.65 128.00,111.95 128.00,111.95
             128.00,111.95 133.71,105.81 133.71,105.81
             135.47,104.00 136.80,103.67 138.50,102.31
             138.50,102.31 142.21,98.48 142.21,98.48
             142.21,98.48 145.97,95.90 145.97,95.90
             145.97,95.90 148.73,92.98 148.73,92.98
             150.58,91.60 151.74,92.21 153.50,88.50
             156.82,87.96 156.62,86.87 159.14,85.13
             159.14,85.13 170.00,77.28 170.00,77.28
             172.50,75.51 175.10,74.32 176.50,71.50
             179.12,71.50 180.37,70.16 182.50,68.75
             182.50,68.75 191.50,63.00 191.50,63.00
             191.50,63.00 209.00,52.81 209.00,52.81
             209.00,52.81 213.50,50.09 213.50,50.09
             213.50,50.09 223.50,45.05 223.50,45.05
             223.50,45.05 240.00,36.82 240.00,36.82
             240.00,36.82 262.00,27.84 262.00,27.84
             262.00,27.84 268.50,25.11 268.50,25.11
             283.84,19.39 299.64,15.01 315.50,11.05
             315.50,11.05 340.00,5.90 340.00,5.90
             344.02,5.24 348.43,4.09 352.50,4.00
             352.50,4.00 352.50,2.50 352.50,2.50
             352.50,2.50 360.00,3.00 360.00,3.00
             360.00,3.00 360.00,1.50 360.00,1.50
             360.00,1.50 368.50,2.00 368.50,2.00
             368.50,2.00 368.50,0.53 368.50,0.53 Z
           M 281.00,398.00
           C 286.77,398.13 285.92,400.02 296.00,400.00
             297.34,400.00 298.69,400.04 300.00,399.74
             313.25,396.70 318.12,375.55 308.24,366.65
             303.47,362.35 296.01,360.55 290.00,358.92
             287.99,358.38 284.08,357.76 284.43,354.98
             284.43,354.98 287.70,346.00 287.70,346.00
             287.70,346.00 293.89,330.00 293.89,330.00
             299.08,316.10 302.94,301.47 309.15,288.00
             313.53,278.52 320.87,269.46 321.00,258.50
             321.00,258.50 321.00,254.50 321.00,254.50
             320.95,243.74 314.32,232.13 305.00,226.73
             302.43,225.24 295.13,223.05 292.00,222.15
             292.00,222.15 273.50,217.40 273.50,217.40
             270.31,216.79 266.02,216.80 263.61,214.39
             260.57,211.34 260.95,206.93 261.00,203.00
             261.06,197.92 264.02,193.64 265.79,189.00
             268.71,181.32 269.57,174.34 266.50,166.50
             265.99,165.21 265.41,163.65 264.66,162.50
             256.69,150.35 236.55,148.56 225.50,157.26
             219.78,161.76 217.10,167.87 216.59,175.00
             216.48,176.51 216.80,178.01 217.00,179.50
             218.59,191.10 224.90,196.76 225.00,205.00
             225.02,206.77 225.17,208.90 224.34,210.50
             223.60,211.93 222.38,213.09 221.00,213.89
             221.00,213.89 205.50,218.85 205.50,218.85
             205.50,218.85 189.50,224.89 189.50,224.89
             189.50,224.89 178.50,228.76 178.50,228.76
             171.32,232.43 166.28,239.31 164.31,247.00
             163.80,249.03 163.00,252.46 163.16,254.50
             164.00,265.03 168.24,274.75 171.89,284.50
             171.89,284.50 181.89,310.50 181.89,310.50
             181.89,310.50 186.71,323.50 186.71,323.50
             190.70,332.84 197.97,348.11 198.00,358.00
             195.36,358.24 193.06,359.16 190.50,359.81
             184.23,361.40 177.13,362.79 173.27,368.52
             167.93,376.46 169.17,388.83 176.58,395.05
             181.32,399.02 186.52,400.07 192.50,400.00
             195.86,399.96 202.40,397.23 203.75,401.09
             204.05,401.97 204.00,403.55 204.00,404.50
             204.00,404.50 202.50,428.00 202.50,428.00
             202.50,428.00 202.50,432.50 202.50,432.50
             202.50,432.50 199.14,458.50 199.14,458.50
             197.29,472.97 194.47,487.41 190.64,501.50
             187.24,514.02 182.78,528.03 175.73,539.00
             173.03,543.19 167.33,550.29 163.62,553.67
             158.34,558.49 150.42,564.68 146.31,570.50
             142.66,575.67 142.16,579.13 140.69,585.00
             139.10,591.36 136.03,604.31 136.00,610.50
             136.00,610.50 136.00,615.50 136.00,615.50
             136.01,621.63 137.18,632.63 143.00,635.96
             145.16,637.19 149.97,637.50 152.50,637.50
             152.50,637.50 336.50,637.50 336.50,637.50
             338.72,637.50 339.84,637.55 342.00,636.82
             352.44,633.30 352.10,619.48 352.00,610.50
             352.00,610.50 349.71,592.50 349.71,592.50
             348.38,585.13 347.31,577.92 343.15,571.50
             339.23,565.45 328.57,557.76 323.02,552.33
             315.57,545.04 308.49,533.50 304.15,524.00
             298.77,512.21 293.97,490.55 291.78,477.50
             291.78,477.50 284.08,428.50 284.08,428.50
             284.08,428.50 282.00,406.00 282.00,406.00
             281.99,401.22 281.58,402.14 281.00,398.00 Z
           M 543.00,598.00
           C 543.00,598.00 486.00,598.00 486.00,598.00
             471.43,598.17 463.56,609.17 465.36,623.00
             465.82,626.51 465.99,630.20 468.61,632.91
             471.45,635.86 473.36,635.73 477.00,636.21
             477.00,636.21 496.50,636.50 496.50,636.50
             496.50,636.50 504.50,637.00 504.50,637.00
             504.50,637.00 510.00,636.54 510.00,636.54
             510.00,636.54 516.50,637.00 516.50,637.00
             516.50,637.00 623.50,637.00 623.50,637.00
             623.50,637.00 647.50,637.00 647.50,637.00
             652.01,636.95 658.32,635.92 661.07,631.98
             663.61,628.37 663.05,622.77 663.00,618.50
             662.84,604.81 653.28,598.52 640.50,598.50
             640.50,598.50 598.00,598.50 598.00,598.50
             598.00,598.50 590.50,598.50 590.50,598.50
             589.06,598.52 586.85,598.93 585.80,597.80
             584.85,596.78 585.00,594.81 585.00,593.50
             585.00,593.50 585.00,560.00 585.00,560.00
             585.00,557.82 584.37,550.70 586.16,549.51
             587.08,548.90 588.91,549.00 590.00,549.00
             590.00,549.00 624.00,549.00 624.00,549.00
             624.00,549.00 638.00,548.00 638.00,548.00
             638.00,548.00 663.50,548.00 663.50,548.00
             663.50,548.00 674.50,548.00 674.50,548.00
             684.41,547.98 691.41,544.90 698.48,538.04
             699.82,536.75 701.19,535.48 702.33,533.99
             704.13,531.63 706.19,527.78 707.30,525.00
             709.05,520.61 709.99,517.25 710.00,512.50
             710.00,512.50 710.00,310.00 710.00,310.00
             709.98,295.93 697.13,281.92 684.00,278.21
             680.23,277.15 673.39,276.28 669.50,276.54
             669.50,276.54 663.50,277.00 663.50,277.00
             663.50,277.00 529.50,277.00 529.50,277.00
             529.50,277.00 469.00,277.00 469.00,277.00
             466.07,277.04 465.69,277.33 463.00,277.78
             460.14,278.26 458.37,278.33 455.50,279.35
             447.34,282.24 438.64,289.80 435.53,298.00
             433.54,303.25 434.00,307.54 434.00,313.00
             434.00,313.00 618.50,313.00 618.50,313.00
             618.50,313.00 663.50,313.00 663.50,313.00
             664.71,313.00 666.36,312.96 667.50,313.28
             672.42,314.69 673.99,320.01 674.00,324.50
             674.00,324.50 674.00,469.50 674.00,469.50
             674.00,469.50 674.00,501.50 674.00,501.50
             673.99,509.58 670.76,513.49 662.50,513.50
             662.50,513.50 640.50,513.50 640.50,513.50
             640.50,513.50 632.50,513.04 632.50,513.04
             632.50,513.04 625.00,513.04 625.00,513.04
             625.00,513.04 620.00,513.04 620.00,513.04
             620.00,513.04 477.00,513.04 477.00,513.04
             477.00,513.04 444.50,513.04 444.50,513.04
             442.66,513.00 435.52,512.53 434.51,513.80
             433.88,514.59 434.00,516.51 434.00,517.50
             434.00,517.50 434.00,520.00 434.00,520.00
             434.05,524.08 435.07,527.37 436.88,531.00
             442.57,542.38 454.41,548.98 467.00,549.00
             467.00,549.00 543.00,549.00 543.00,549.00
             543.00,549.00 543.00,598.00 543.00,598.00 Z
           M 329.00,353.00
           C 329.00,353.00 328.00,353.00 328.00,353.00
             328.00,353.00 326.50,358.00 326.50,358.00
             326.95,357.69 327.27,357.37 327.51,357.04
             328.08,356.20 329.24,356.31 329.33,356.14
             329.42,355.96 327.98,356.16 328.05,355.97
             328.21,355.50 328.28,355.01 328.50,354.50
             328.50,354.50 329.31,356.53 329.91,357.56
             330.21,358.10 330.50,358.00 330.50,358.00
             330.50,358.00 329.00,353.00 329.00,353.00 Z
           M 332.50,353.00
           C 332.50,353.00 331.50,353.00 331.50,353.00
             331.50,353.00 331.50,358.00 331.50,358.00
             331.50,358.00 333.53,358.05 334.56,357.91
             335.15,357.82 335.00,357.50 335.00,357.50
             335.00,357.50 332.50,357.50 332.50,357.50
             332.50,357.50 332.50,353.00 332.50,353.00 Z
           M 338.89,353.34
           C 339.31,353.26 339.50,353.00 339.50,353.00
             339.50,353.00 336.00,353.00 336.00,353.00
             336.00,353.00 336.00,358.00 336.00,358.00
             336.00,358.00 337.82,358.04 338.86,357.89
             339.41,357.81 339.50,357.50 339.50,357.50
             339.50,357.50 337.00,357.50 337.00,357.50
             337.00,357.50 337.00,355.50 337.00,355.50
             337.00,355.50 337.98,355.52 338.56,355.38
             338.93,355.28 339.00,355.00 339.00,355.00
             339.00,355.00 337.00,355.00 337.00,355.00
             337.00,355.00 337.00,353.50 337.00,353.50
             337.00,353.50 338.15,353.49 338.89,353.34 Z
           M 341.41,353.42
           C 341.07,353.10 340.55,353.03 340.55,353.03
             340.55,353.03 341.72,354.46 341.50,355.58
             341.40,356.10 341.23,356.59 340.97,356.98
             340.55,357.61 340.00,358.00 340.00,358.00
             340.00,358.00 340.65,357.80 341.11,357.42
             341.60,357.02 341.91,356.45 341.91,356.45
             341.91,356.45 342.50,356.50 342.50,356.50
             342.50,356.50 342.67,356.97 343.03,357.33
             343.42,357.72 344.00,358.00 344.00,358.00
             343.80,357.45 343.43,357.06 343.22,356.69
             342.93,356.20 342.83,355.78 342.80,355.47
             342.76,355.04 342.94,354.62 343.34,353.95
             343.51,353.68 343.82,353.42 344.00,353.00
             344.00,353.00 343.44,353.14 343.11,353.44
             342.59,353.91 342.20,354.62 342.20,354.62
             342.20,354.62 341.88,353.87 341.41,353.42 Z
           M 350.23,353.23
           C 350.00,352.89 349.48,353.00 349.48,353.00
             349.48,353.00 349.50,358.00 349.50,358.00
             349.50,358.00 350.50,358.00 350.50,358.00
             350.50,358.00 350.42,356.97 350.56,356.39
             350.65,356.03 351.00,356.00 351.00,356.00
             351.00,356.00 353.00,358.00 353.00,358.00
             352.91,357.73 352.99,357.49 352.88,357.28
             352.41,356.42 351.34,355.90 351.34,355.36
             351.35,354.94 352.25,354.55 352.70,353.88
             352.87,353.62 352.86,353.31 353.00,353.00
             353.00,353.00 352.01,353.87 351.27,354.31
             350.89,354.54 350.50,354.50 350.50,354.50
             350.50,354.50 350.50,353.63 350.23,353.23 Z
           M 524.00,388.00
           C 524.00,380.91 521.95,373.09 517.34,367.50
             511.48,360.40 503.29,356.96 494.50,355.20
             483.67,353.03 469.43,353.38 459.50,358.66
             455.85,360.60 453.84,362.49 451.00,365.33
             448.66,367.67 446.90,369.54 445.26,372.50
             443.36,375.92 442.43,379.67 441.92,383.50
             441.92,383.50 441.17,388.00 441.17,388.00
             441.17,388.00 441.92,392.50 441.92,392.50
             444.56,412.54 464.18,417.85 481.00,422.06
             490.35,424.40 503.63,425.86 504.83,438.00
             505.02,439.90 504.41,441.81 503.59,443.50
             500.42,450.00 492.92,452.92 486.00,453.00
             478.74,453.08 473.16,452.67 467.50,447.45
             465.44,445.55 463.62,443.46 462.26,441.00
             461.58,439.79 460.72,437.23 459.68,436.50
             458.79,435.87 457.06,436.00 456.00,436.00
             456.00,436.00 442.50,436.00 442.50,436.00
             439.27,436.04 438.94,436.55 436.00,437.00
             436.71,440.51 438.40,446.90 439.99,450.00
             445.25,460.27 453.29,465.76 464.00,469.33
             468.67,470.89 473.56,471.99 478.50,472.00
             478.50,472.00 489.00,472.00 489.00,472.00
             492.86,471.99 493.81,471.64 497.50,470.90
             510.04,468.39 519.71,461.76 525.18,450.00
             526.72,446.68 527.95,442.67 528.00,439.00
             528.06,433.54 528.41,429.23 526.40,424.00
             525.65,422.08 524.63,420.69 523.50,419.00
             516.36,408.36 503.77,404.89 492.00,401.94
             484.94,400.16 471.03,397.55 466.82,391.50
             462.98,385.97 466.09,377.72 472.00,375.11
             475.26,373.66 479.94,373.96 483.50,374.00
             488.21,374.06 493.16,375.39 496.39,379.02
             499.16,382.12 499.80,386.48 501.28,387.50
             502.18,388.12 503.93,388.00 505.00,388.00
             505.00,388.00 524.00,388.00 524.00,388.00 Z
           M 346.94,355.75
           C 347.34,355.55 347.52,354.56 347.52,354.56
             347.52,354.56 345.50,354.50 345.50,354.50
             345.50,354.50 345.50,356.00 345.50,356.00
             345.50,356.00 346.37,356.03 346.94,355.75 Z
           M 430.00,357.00
           C 430.00,357.00 409.00,357.00 409.00,357.00
             409.00,357.00 404.80,357.80 404.80,357.80
             404.80,357.80 402.48,364.50 402.48,364.50
             402.48,364.50 398.93,376.50 398.93,376.50
             398.93,376.50 386.33,418.00 386.33,418.00
             386.33,418.00 381.91,432.50 381.91,432.50
             381.91,432.50 379.00,444.00 379.00,444.00
             379.00,444.00 377.00,444.00 377.00,444.00
             376.99,439.82 375.92,438.46 374.78,434.50
             374.78,434.50 370.93,421.00 370.93,421.00
             370.93,421.00 367.56,409.00 367.56,409.00
             367.56,409.00 359.13,380.00 359.13,380.00
             357.85,375.22 354.20,363.21 354.00,359.00
             354.00,359.00 327.00,359.00 327.00,359.00
             327.00,359.00 330.75,370.00 330.75,370.00
             330.75,370.00 339.17,394.00 339.17,394.00
             339.17,394.00 356.58,444.50 356.58,444.50
             356.58,444.50 362.42,462.00 362.42,462.00
             363.04,463.88 364.01,468.04 365.38,469.26
             366.91,470.64 369.57,470.50 371.50,470.50
             371.50,470.50 388.00,470.50 388.00,470.50
             393.29,470.43 392.64,467.76 393.93,463.50
             393.93,463.50 400.08,444.50 400.08,444.50
             400.08,444.50 421.08,383.50 421.08,383.50
             421.08,383.50 427.00,366.00 427.00,366.00
             427.00,366.00 430.00,357.00 430.00,357.00 Z" />
</svg>
